<svg id="visual" viewBox="0 0 1350 700" width="1350" height="700" xmlns="http://www.w3.org/2000/svg" xmlns:xlink="http://www.w3.org/1999/xlink" version="1.1"><rect x="0" y="0" width="1350" height="700" fill="#3f6b8c"></rect><path d="M0 526L45 507C90 488 180 450 270 452.7C360 455.3 450 498.7 540 517.5C630 536.3 720 530.7 810 516C900 501.3 990 477.7 1080 490.3C1170 503 1260 552 1305 576.5L1350 601L1350 0L1305 0C1260 0 1170 0 1080 0C990 0 900 0 810 0C720 0 630 0 540 0C450 0 360 0 270 0C180 0 90 0 45 0L0 0Z" fill="#fa7268"></path><path d="M0 490L45 478C90 466 180 442 270 438.7C360 435.3 450 452.7 540 464.8C630 477 720 484 810 462C900 440 990 389 1080 388C1170 387 1260 436 1305 460.5L1350 485L1350 0L1305 0C1260 0 1170 0 1080 0C990 0 900 0 810 0C720 0 630 0 540 0C450 0 360 0 270 0C180 0 90 0 45 0L0 0Z" fill="#f16367"></path><path d="M0 366L45 346.3C90 326.7 180 287.3 270 290.8C360 294.3 450 340.7 540 345.7C630 350.7 720 314.3 810 316.3C900 318.3 990 358.7 1080 373C1170 387.3 1260 375.7 1305 369.8L1350 364L1350 0L1305 0C1260 0 1170 0 1080 0C990 0 900 0 810 0C720 0 630 0 540 0C450 0 360 0 270 0C180 0 90 0 45 0L0 0Z" fill="#e85467"></path><path d="M0 213L45 206.7C90 200.3 180 187.7 270 206.5C360 225.3 450 275.7 540 292C630 308.3 720 290.7 810 275.5C900 260.3 990 247.7 1080 230.3C1170 213 1260 191 1305 180L1350 169L1350 0L1305 0C1260 0 1170 0 1080 0C990 0 900 0 810 0C720 0 630 0 540 0C450 0 360 0 270 0C180 0 90 0 45 0L0 0Z" fill="#de4467"></path><path d="M0 225L45 211.2C90 197.3 180 169.7 270 171.5C360 173.3 450 204.7 540 205C630 205.3 720 174.7 810 166.8C900 159 990 174 1080 173.2C1170 172.3 1260 155.7 1305 147.3L1350 139L1350 0L1305 0C1260 0 1170 0 1080 0C990 0 900 0 810 0C720 0 630 0 540 0C450 0 360 0 270 0C180 0 90 0 45 0L0 0Z" fill="#d23467"></path><path d="M0 86L45 81.7C90 77.3 180 68.7 270 65.8C360 63 450 66 540 78.3C630 90.7 720 112.3 810 124.8C900 137.3 990 140.7 1080 124.7C1170 108.7 1260 73.3 1305 55.7L1350 38L1350 0L1305 0C1260 0 1170 0 1080 0C990 0 900 0 810 0C720 0 630 0 540 0C450 0 360 0 270 0C180 0 90 0 45 0L0 0Z" fill="#c62368"></path></svg>