<svg id="visual" viewBox="0 0 4000 700" width="4000" height="700" xmlns="http://www.w3.org/2000/svg" xmlns:xlink="http://www.w3.org/1999/xlink" version="1.1"><rect x="0" y="0" width="4000" height="700" fill="#3f6b8c"></rect><path d="M0 526L133.3 507C266.7 488 533.3 450 800 452.7C1066.7 455.3 1333.3 498.7 1600 517.5C1866.7 536.3 2133.3 530.7 2400 516C2666.7 501.3 2933.3 477.7 3200 490.3C3466.7 503 3733.3 552 3866.7 576.5L4000 601L4000 0L3866.7 0C3733.3 0 3466.7 0 3200 0C2933.3 0 2666.7 0 2400 0C2133.3 0 1866.7 0 1600 0C1333.3 0 1066.7 0 800 0C533.3 0 266.7 0 133.3 0L0 0Z" fill="#fa7268"></path><path d="M0 490L133.3 478C266.7 466 533.3 442 800 438.7C1066.7 435.3 1333.3 452.7 1600 464.8C1866.7 477 2133.3 484 2400 462C2666.7 440 2933.3 389 3200 388C3466.7 387 3733.3 436 3866.7 460.5L4000 485L4000 0L3866.7 0C3733.3 0 3466.7 0 3200 0C2933.3 0 2666.7 0 2400 0C2133.3 0 1866.7 0 1600 0C1333.3 0 1066.7 0 800 0C533.3 0 266.7 0 133.3 0L0 0Z" fill="#f16367"></path><path d="M0 366L133.3 346.3C266.7 326.7 533.3 287.3 800 290.8C1066.7 294.3 1333.3 340.7 1600 345.7C1866.7 350.7 2133.3 314.3 2400 316.3C2666.7 318.3 2933.3 358.7 3200 373C3466.7 387.3 3733.3 375.7 3866.7 369.8L4000 364L4000 0L3866.7 0C3733.3 0 3466.7 0 3200 0C2933.3 0 2666.7 0 2400 0C2133.3 0 1866.7 0 1600 0C1333.3 0 1066.7 0 800 0C533.3 0 266.7 0 133.3 0L0 0Z" fill="#e85467"></path><path d="M0 213L133.3 206.7C266.7 200.3 533.3 187.7 800 206.5C1066.7 225.3 1333.3 275.7 1600 292C1866.7 308.3 2133.3 290.7 2400 275.5C2666.7 260.3 2933.3 247.7 3200 230.3C3466.7 213 3733.3 191 3866.7 180L4000 169L4000 0L3866.7 0C3733.3 0 3466.7 0 3200 0C2933.3 0 2666.7 0 2400 0C2133.3 0 1866.7 0 1600 0C1333.3 0 1066.7 0 800 0C533.3 0 266.7 0 133.3 0L0 0Z" fill="#de4467"></path><path d="M0 225L133.3 211.2C266.7 197.3 533.3 169.7 800 171.5C1066.7 173.3 1333.3 204.7 1600 205C1866.7 205.3 2133.3 174.7 2400 166.8C2666.7 159 2933.3 174 3200 173.2C3466.7 172.3 3733.3 155.7 3866.7 147.3L4000 139L4000 0L3866.7 0C3733.3 0 3466.7 0 3200 0C2933.3 0 2666.7 0 2400 0C2133.3 0 1866.7 0 1600 0C1333.3 0 1066.7 0 800 0C533.3 0 266.7 0 133.3 0L0 0Z" fill="#d23467"></path><path d="M0 86L133.3 81.7C266.7 77.3 533.3 68.7 800 65.8C1066.7 63 1333.3 66 1600 78.3C1866.7 90.7 2133.3 112.3 2400 124.8C2666.7 137.3 2933.3 140.7 3200 124.7C3466.7 108.7 3733.3 73.3 3866.7 55.7L4000 38L4000 0L3866.7 0C3733.3 0 3466.7 0 3200 0C2933.3 0 2666.7 0 2400 0C2133.3 0 1866.7 0 1600 0C1333.3 0 1066.7 0 800 0C533.3 0 266.7 0 133.3 0L0 0Z" fill="#c62368"></path></svg>